<mxfile host="app.diagrams.net" agent="Mozilla/5.0 (Windows NT 10.0; Win64; x64) AppleWebKit/537.36 (KHTML, like Gecko) Chrome/127.0.0.0 Safari/537.36" version="24.7.7">
  <diagram id="R2lEEEUBdFMjLlhIrx00" name="Page-1">
    <mxGraphModel dx="1035" dy="551" grid="1" gridSize="10" guides="1" tooltips="1" connect="1" arrows="1" fold="1" page="1" pageScale="1" pageWidth="850" pageHeight="1100" math="0" shadow="0" extFonts="Permanent Marker^https://fonts.googleapis.com/css?family=Permanent+Marker">
      <root>
        <mxCell id="0" />
        <mxCell id="1" parent="0" />
        <mxCell id="xavpU2Kh75MeUJ11ntDA-78" value="" style="rounded=0;orthogonalLoop=1;jettySize=auto;html=1;endArrow=none;endFill=0;" edge="1" parent="1" source="xavpU2Kh75MeUJ11ntDA-1" target="xavpU2Kh75MeUJ11ntDA-75">
          <mxGeometry relative="1" as="geometry" />
        </mxCell>
        <mxCell id="xavpU2Kh75MeUJ11ntDA-1" value="Emp_estac" style="whiteSpace=wrap;html=1;align=center;" vertex="1" parent="1">
          <mxGeometry x="20" y="210" width="100" height="40" as="geometry" />
        </mxCell>
        <mxCell id="xavpU2Kh75MeUJ11ntDA-2" value="No_identf" style="ellipse;whiteSpace=wrap;html=1;align=center;fontStyle=4;spacingLeft=80;" vertex="1" parent="1">
          <mxGeometry x="300" y="30" width="20" height="10" as="geometry" />
        </mxCell>
        <mxCell id="xavpU2Kh75MeUJ11ntDA-12" style="rounded=0;orthogonalLoop=1;jettySize=auto;html=1;endArrow=none;endFill=0;" edge="1" parent="1" source="xavpU2Kh75MeUJ11ntDA-4" target="xavpU2Kh75MeUJ11ntDA-2">
          <mxGeometry relative="1" as="geometry" />
        </mxCell>
        <mxCell id="xavpU2Kh75MeUJ11ntDA-53" style="rounded=0;orthogonalLoop=1;jettySize=auto;html=1;entryX=0;entryY=1;entryDx=0;entryDy=0;endArrow=none;endFill=0;" edge="1" parent="1" source="xavpU2Kh75MeUJ11ntDA-4" target="xavpU2Kh75MeUJ11ntDA-51">
          <mxGeometry relative="1" as="geometry" />
        </mxCell>
        <mxCell id="xavpU2Kh75MeUJ11ntDA-4" value="Vaga" style="whiteSpace=wrap;html=1;align=center;" vertex="1" parent="1">
          <mxGeometry x="170" y="50" width="100" height="40" as="geometry" />
        </mxCell>
        <mxCell id="xavpU2Kh75MeUJ11ntDA-15" value="Cliente_av" style="whiteSpace=wrap;html=1;align=center;" vertex="1" parent="1">
          <mxGeometry x="425" y="260" width="100" height="40" as="geometry" />
        </mxCell>
        <mxCell id="xavpU2Kh75MeUJ11ntDA-49" value="Cliente_men" style="whiteSpace=wrap;html=1;align=center;" vertex="1" parent="1">
          <mxGeometry x="40" y="370" width="100" height="40" as="geometry" />
        </mxCell>
        <mxCell id="xavpU2Kh75MeUJ11ntDA-65" style="rounded=0;orthogonalLoop=1;jettySize=auto;html=1;entryX=0.5;entryY=1;entryDx=0;entryDy=0;endArrow=none;endFill=0;" edge="1" parent="1" source="xavpU2Kh75MeUJ11ntDA-50" target="xavpU2Kh75MeUJ11ntDA-54">
          <mxGeometry relative="1" as="geometry" />
        </mxCell>
        <mxCell id="xavpU2Kh75MeUJ11ntDA-66" style="rounded=0;orthogonalLoop=1;jettySize=auto;html=1;entryX=0.5;entryY=1;entryDx=0;entryDy=0;endArrow=none;endFill=0;" edge="1" parent="1" source="xavpU2Kh75MeUJ11ntDA-50" target="xavpU2Kh75MeUJ11ntDA-57">
          <mxGeometry relative="1" as="geometry" />
        </mxCell>
        <mxCell id="xavpU2Kh75MeUJ11ntDA-67" style="rounded=0;orthogonalLoop=1;jettySize=auto;html=1;exitX=1;exitY=0.5;exitDx=0;exitDy=0;entryX=0;entryY=0.5;entryDx=0;entryDy=0;endArrow=none;endFill=0;" edge="1" parent="1" source="xavpU2Kh75MeUJ11ntDA-50" target="xavpU2Kh75MeUJ11ntDA-58">
          <mxGeometry relative="1" as="geometry" />
        </mxCell>
        <mxCell id="xavpU2Kh75MeUJ11ntDA-71" style="rounded=0;orthogonalLoop=1;jettySize=auto;html=1;exitX=0.75;exitY=1;exitDx=0;exitDy=0;entryX=0;entryY=0.5;entryDx=0;entryDy=0;endArrow=none;endFill=0;" edge="1" parent="1" source="xavpU2Kh75MeUJ11ntDA-50" target="xavpU2Kh75MeUJ11ntDA-59">
          <mxGeometry relative="1" as="geometry" />
        </mxCell>
        <mxCell id="xavpU2Kh75MeUJ11ntDA-72" style="rounded=0;orthogonalLoop=1;jettySize=auto;html=1;exitX=0.5;exitY=1;exitDx=0;exitDy=0;entryX=0.5;entryY=0;entryDx=0;entryDy=0;endArrow=none;endFill=0;" edge="1" parent="1" source="xavpU2Kh75MeUJ11ntDA-50" target="xavpU2Kh75MeUJ11ntDA-60">
          <mxGeometry relative="1" as="geometry" />
        </mxCell>
        <mxCell id="xavpU2Kh75MeUJ11ntDA-73" style="rounded=0;orthogonalLoop=1;jettySize=auto;html=1;exitX=0.25;exitY=1;exitDx=0;exitDy=0;entryX=0.5;entryY=0;entryDx=0;entryDy=0;endArrow=none;endFill=0;" edge="1" parent="1" source="xavpU2Kh75MeUJ11ntDA-50" target="xavpU2Kh75MeUJ11ntDA-69">
          <mxGeometry relative="1" as="geometry" />
        </mxCell>
        <mxCell id="xavpU2Kh75MeUJ11ntDA-50" value="Comprovante" style="whiteSpace=wrap;html=1;align=center;" vertex="1" parent="1">
          <mxGeometry x="300" y="350" width="100" height="40" as="geometry" />
        </mxCell>
        <mxCell id="xavpU2Kh75MeUJ11ntDA-51" value="Status" style="ellipse;whiteSpace=wrap;html=1;align=center;fontStyle=0;spacingLeft=70;" vertex="1" parent="1">
          <mxGeometry x="300" y="80" width="20" height="10" as="geometry" />
        </mxCell>
        <mxCell id="xavpU2Kh75MeUJ11ntDA-54" value="Valor fixo" style="ellipse;whiteSpace=wrap;html=1;align=center;fontStyle=0;spacingLeft=50;" vertex="1" parent="1">
          <mxGeometry x="310" y="320" width="20" height="10" as="geometry" />
        </mxCell>
        <mxCell id="xavpU2Kh75MeUJ11ntDA-57" value="Nome" style="ellipse;whiteSpace=wrap;html=1;align=center;fontStyle=0;spacingLeft=60;" vertex="1" parent="1">
          <mxGeometry x="390" y="320" width="20" height="10" as="geometry" />
        </mxCell>
        <mxCell id="xavpU2Kh75MeUJ11ntDA-58" value="número vaga" style="ellipse;whiteSpace=wrap;html=1;align=center;fontStyle=0;spacingLeft=60;" vertex="1" parent="1">
          <mxGeometry x="435" y="365" width="20" height="10" as="geometry" />
        </mxCell>
        <mxCell id="xavpU2Kh75MeUJ11ntDA-59" value="hora entrada" style="ellipse;whiteSpace=wrap;html=1;align=center;fontStyle=0;spacingLeft=60;" vertex="1" parent="1">
          <mxGeometry x="410" y="400" width="20" height="10" as="geometry" />
        </mxCell>
        <mxCell id="xavpU2Kh75MeUJ11ntDA-60" value="hora saída" style="ellipse;whiteSpace=wrap;html=1;align=center;fontStyle=0;spacingLeft=60;" vertex="1" parent="1">
          <mxGeometry x="370" y="420" width="20" height="10" as="geometry" />
        </mxCell>
        <mxCell id="xavpU2Kh75MeUJ11ntDA-69" value="valor estac" style="ellipse;whiteSpace=wrap;html=1;align=center;fontStyle=0;spacingLeft=60;" vertex="1" parent="1">
          <mxGeometry x="310" y="410" width="20" height="10" as="geometry" />
        </mxCell>
        <mxCell id="xavpU2Kh75MeUJ11ntDA-77" style="rounded=0;orthogonalLoop=1;jettySize=auto;html=1;entryX=0;entryY=0.5;entryDx=0;entryDy=0;endArrow=none;endFill=0;" edge="1" parent="1" source="xavpU2Kh75MeUJ11ntDA-75" target="xavpU2Kh75MeUJ11ntDA-4">
          <mxGeometry relative="1" as="geometry" />
        </mxCell>
        <mxCell id="xavpU2Kh75MeUJ11ntDA-75" value="gerencia" style="shape=rhombus;perimeter=rhombusPerimeter;whiteSpace=wrap;html=1;align=center;" vertex="1" parent="1">
          <mxGeometry x="40" y="100" width="80" height="40" as="geometry" />
        </mxCell>
        <mxCell id="xavpU2Kh75MeUJ11ntDA-79" value="Carro" style="whiteSpace=wrap;html=1;align=center;" vertex="1" parent="1">
          <mxGeometry x="560" y="190" width="100" height="40" as="geometry" />
        </mxCell>
      </root>
    </mxGraphModel>
  </diagram>
</mxfile>
